<svg xmlns="http://www.w3.org/2000/svg" viewBox="0 0 451.816 451.816"><path fill="#171a1d" d="M0 0h460v460H0z" paint-order="stroke markers fill"/><path fill="#fff" d="M395.37 119.01 324.894 332.63a10.485 10.485 0 0 1-5.277 6.117 10.526 10.526 0 0 1-4.745 1.136c-1.112 0-2.227-.178-3.311-.536l-17.63-5.815a6.773 6.773 0 0 1-4.31-8.553 6.774 6.774 0 0 1 8.553-4.31l14.792 4.878L381.572 117.6 247.226 73.275l-19.063 57.784a6.773 6.773 0 0 1-12.863-4.245l19.999-60.62c1.827-5.529 7.807-8.543 13.334-6.719l140.021 46.197a10.481 10.481 0 0 1 6.118 5.277 10.486 10.486 0 0 1 .599 8.06zm-138.795-6.096a6.768 6.768 0 0 0 2.123.343 6.776 6.776 0 0 0 6.43-4.653l2.02-6.12a6.773 6.773 0 0 0-12.863-4.245l-2.02 6.121a6.773 6.773 0 0 0 4.31 8.554zm38.49 177.305-2.02 6.121a6.773 6.773 0 0 0 4.31 8.554 6.76 6.76 0 0 0 2.123.343 6.775 6.775 0 0 0 6.43-4.653l2.02-6.12a6.773 6.773 0 0 0-4.31-8.554 6.774 6.774 0 0 0-8.554 4.31zm-47.66-119.03c1.952-5.915 6.093-10.717 11.658-13.522 5.567-2.806 11.89-3.275 17.806-1.323 7.302 2.409 11.27 6.682 13.566 11.727 4.85-2.689 10.579-3.762 17.884-1.351 12.213 4.03 18.873 17.247 14.845 29.462-6.069 18.393-28.604 29.746-50.396 40.724a6.773 6.773 0 0 1-9.095-3c-10.981-21.792-22.336-44.327-16.268-62.716zm25.322 50.56c17.276-8.81 33.712-18.109 37.574-29.81 1.69-5.122-1.104-10.666-6.227-12.356-4.129-1.363-6.804-.974-12.689 4.947a6.771 6.771 0 0 1-11.505-3.795c-1.207-8.263-3.127-10.166-7.254-11.528a9.793 9.793 0 0 0-3.07-.496c-1.51 0-3.009.353-4.397 1.053a9.715 9.715 0 0 0-4.89 5.67c-3.861 11.698 3.816 28.953 12.458 46.314zm-51.738-3.449v66.053a6.772 6.772 0 1 0 13.545 0V218.3c0-23.728-4.34-43.662-12.897-59.249-7.953-14.484-19.57-24.913-33.612-30.184l-45.19-20.381a6.773 6.773 0 0 0-9.318 7.955l3.766 13.812c-23.272 8.672-44.744 27.06-61.014 52.41a6.772 6.772 0 0 0-1.073 3.658v41.907A6.773 6.773 0 0 0 81.968 235h26.223c.226 0 .452-.011.676-.034 7.172-.72 18.844-4.503 20.537-21.25a19.755 19.755 0 0 1 7.184-1.35c10.892 0 19.752 8.86 19.752 19.751 0 12.521-7.698 15.517-23.711 20.592-19.953 6.324-47.278 14.986-47.278 60.274v10.78c-12.72.03-23.06 10.385-23.06 23.113 0 2.078.282 4.137.83 6.122a23.051 23.051 0 0 0-7.213 16.758c0 6.156 2.409 11.955 6.786 16.332 4.375 4.375 10.175 6.785 16.328 6.785h86.616a6.772 6.772 0 1 0 0-13.545H79.022c-2.536 0-4.933-1-6.751-2.818-1.818-1.818-2.818-4.215-2.818-6.753 0-1.99.622-3.886 1.728-5.463h87.256a6.772 6.772 0 0 0 6.773-6.772 6.772 6.772 0 0 0-6.773-6.773H76.668a9.467 9.467 0 0 1-.83-3.87c0-5.278 4.292-9.57 9.569-9.57h80.231a6.773 6.773 0 0 0 0-13.545l-66.74-.001v-10.778c0-35.372 18.373-41.196 37.824-47.362 15.545-4.927 33.164-10.512 33.164-33.504 0-18.36-14.938-33.296-33.297-33.296a33.244 33.244 0 0 0-17.265 4.823 6.771 6.771 0 0 0-3.257 5.788c0 9.18-3.014 11.425-8.235 12.022h-19.09v-8.204h2.889a6.772 6.772 0 1 0 0-13.546h-2.89v-11.372c15.647-23.67 36.94-40.817 58.665-47.181a6.773 6.773 0 0 0 4.63-8.282l-1.672-6.13 31.785 14.335c.26.136.529.256.806.358 24.172 8.874 38.034 36.891 38.034 76.866zm-66.88-52.479a6.772 6.772 0 1 0 0 13.545h1.514a6.772 6.772 0 1 0 0-13.545zm123.868 150.342v62.37c0 7.907-6.434 14.34-14.342 14.34h-62.37c-7.907 0-14.34-6.433-14.34-14.34v-62.37c0-7.907 6.433-14.34 14.34-14.34h62.37c7.908 0 14.342 6.432 14.342 14.34zm-13.545 0a.817.817 0 0 0-.797-.795h-62.37a.816.816 0 0 0-.795.795v62.37c0 .423.372.794.795.794h62.37a.817.817 0 0 0 .797-.794zm-19.406 12.177h-1.49a6.772 6.772 0 0 0-6.773 6.772 6.772 6.772 0 0 0 6.773 6.773h1.49a6.772 6.772 0 0 0 6.773-6.773 6.772 6.772 0 0 0-6.773-6.772zm0 24.468h-1.491a6.772 6.772 0 1 0 0 13.546h1.49a6.773 6.773 0 0 0 0-13.546zm-23.659-24.468h-1.49a6.772 6.772 0 0 0-6.773 6.772 6.772 6.772 0 0 0 6.773 6.773h1.49a6.772 6.772 0 1 0 0-13.545zm0 24.468h-1.491a6.772 6.772 0 1 0 0 13.546h1.49a6.772 6.772 0 1 0 0-13.545z"/></svg>